<svg width="250" height="200" xmlns="http://www.w3.org/2000/svg">
 <g>
  <title>Layer 1</title>
  <!--<path id="svg_2" d="m29.5,138c0,0 -3,35 -3,35c0,0 37,-31 37,-31c0,0 32,29 33,29c1,0 22,-32 23,-33c1,-1 56,22 56,22c0,0 2,-31 3,-31c1,0 56,-4 56,-4c0,0 -18,-35 -18,-35c0,0 16,-45 16,-45c0,0 -45,-1 -45,-1c0,0 -17,-30 -17,-30c0,0 -19,29 -19,29c0,0 -54,-26 -54,-26c0,0 -13,28 -13,28c0,0 -56,-17 -56,-17c0,0 12,32 12,32c0,0 -21,23 -21,23c0,0 19,9 20,9c1,0 -20,33 -20,33c0,0 10,13 10,13z" stroke-opacity="null" stroke-width="8" stroke="#000" fill="#cece0e"/>
  <text font-weight="bold" transform="rotate(-12 119.02343750000001,94.99999999999997) " xml:space="preserve" text-anchor="start" font-family="Helvetica, Arial, sans-serif" font-size="84" id="svg_3" y="124" x="63.5" stroke-opacity="null" stroke-width="5" stroke="#000" fill="#ff0000">VS</text>-->
  <path id="svg_2" d="m29.5,138c0,0 -3,35 -3,35c0,0 37,-31 37,-31c0,0 32,29 33,29c1,0 22,-32 23,-33c1,-1 56,22 56,22c0,0 2,-31 3,-31c1,0 56,-4 56,-4c0,0 -18,-35 -18,-35c0,0 16,-45 16,-45c0,0 -45,-1 -45,-1c0,0 -17,-30 -17,-30c0,0 -19,29 -19,29c0,0 -54,-26 -54,-26c0,0 -13,28 -13,28c0,0 -56,-17 -56,-17c0,0 12,32 12,32c0,0 -21,23 -21,23c0,0 19,9 20,9c1,0 -20,33 -20,33c0,0 10,13 10,13z" stroke-opacity="null" stroke-width="8" stroke="#000" fill="#bf00bf"/>
  <text font-weight="bold" transform="rotate(-12 119.02343750000001,94.99999999999997) " xml:space="preserve" text-anchor="start" font-family="Helvetica, Arial, sans-serif" font-size="84" id="svg_3" y="124" x="63.5" stroke-opacity="null" stroke-width="5" stroke="#000" fill="#ff007f">VS</text>
 </g>
</svg>